<?xml version="1.0" encoding="iso-8859-1"?>
<!-- Uploaded to: SVG Repo, www.svgrepo.com, Generator: SVG Repo Mixer Tools -->
<svg height="800px" width="800px" version="1.1" id="Layer_1" xmlns="http://www.w3.org/2000/svg" xmlns:xlink="http://www.w3.org/1999/xlink" 
	 viewBox="0 0 512 512" xml:space="preserve">
<g>
	<path style="fill:#DDB185;" d="M130.942,286.449v195.879c0,8.545,7.041,15.475,15.729,15.475h218.655
		c8.688,0,15.731-6.93,15.731-15.475V286.449H130.942z"/>
	<ellipse style="fill:#DDB185;" cx="105.733" cy="69.632" rx="59.197" ry="58.232"/>
</g>
<path style="fill:#FFFFFF;" d="M105.727,98.004c-15.903,0-28.839-12.727-28.839-28.369c0-15.644,12.937-28.371,28.839-28.371
	c15.901,0,28.838,12.728,28.838,28.371C134.566,85.277,121.629,98.004,105.727,98.004z"/>
<ellipse style="fill:#DDB185;" cx="406.266" cy="69.632" rx="59.198" ry="58.232"/>
<path style="fill:#FFFFFF;" d="M406.27,98.004c-15.903,0-28.84-12.727-28.84-28.369c0-15.644,12.937-28.371,28.84-28.371
	c15.904,0,28.841,12.728,28.841,28.371C435.112,85.277,422.175,98.004,406.27,98.004z"/>
<ellipse style="fill:#EDD7BE;" cx="255.999" cy="178.73" rx="181.687" ry="178.73"/>
<path style="opacity:0.1;enable-background:new    ;" d="M108.206,178.73c0-93.088,72.345-169.54,164.74-177.95
	C267.365,0.273,261.716,0,255.999,0C155.657,0,74.314,80.02,74.314,178.73c0,98.708,81.343,178.729,181.686,178.729
	c5.717,0,11.365-0.273,16.946-0.781C180.551,348.269,108.206,271.817,108.206,178.73z"/>
<path style="fill:#FFFFFF;" d="M325.211,283.18c0,37.604-30.986,68.087-69.212,68.087l0,0c-38.228,0-69.214-30.483-69.214-68.087
	v-35.591c0-37.605,30.986-68.088,69.214-68.088l0,0c38.226,0,69.212,30.483,69.212,68.088V283.18z"/>
<path style="fill:#FF8163;" d="M255.999,488.316c-4.12,0-8.066-1.643-10.97-4.553L137.955,376.564
	c-15.14-15.13-23.477-35.265-23.477-56.673c0-21.417,8.337-41.548,23.477-56.696c15.134-15.138,35.263-23.476,56.669-23.476
	c21.404,0,41.533,8.337,56.671,23.476l4.703,4.71l4.705-4.71c15.134-15.138,35.259-23.476,56.674-23.476
	c21.396,0,41.525,8.337,56.661,23.476c15.137,15.148,23.479,35.279,23.479,56.696c0,21.408-8.34,41.543-23.479,56.684
	l-107.064,107.19C264.061,486.674,260.117,488.316,255.999,488.316z"/>
<g style="opacity:0.1;">
	<path d="M171.687,365.216c-15.14-15.13-23.477-35.265-23.477-56.674c0-21.416,8.337-41.547,23.477-56.696
		c4.537-4.538,9.529-8.451,14.865-11.725c-18.357,1.823-35.38,9.854-48.595,23.073c-15.14,15.148-23.477,35.279-23.477,56.696
		c0,21.408,8.337,41.543,23.477,56.673l107.074,107.2c2.905,2.909,6.85,4.553,10.97,4.553c4.118,0,8.061-1.643,10.975-4.553
		l11.56-11.573L171.687,365.216z"/>
</g>
<g>
	<path style="fill:#EDD7BE;" d="M362.364,333.07c0,17.522,14.435,31.722,32.246,31.722l0,0c17.81,0,32.249-14.201,32.249-31.722
		v-21.664c0-17.522-14.438-31.721-32.249-31.721l0,0c-17.81,0-32.246,14.2-32.246,31.721V333.07z"/>
	<path style="fill:#EDD7BE;" d="M80.952,333.07c0,17.522,14.437,31.722,32.248,31.722l0,0c17.81,0,32.249-14.201,32.249-31.722
		v-21.664c0-17.522-14.438-31.721-32.249-31.721l0,0c-17.81,0-32.248,14.2-32.248,31.721
		C80.952,311.406,80.952,333.07,80.952,333.07z"/>
</g>
<path style="fill:#8C6239;" d="M281.168,195.751c0,11.537-9.508,20.889-21.235,20.889h-7.865c-11.731,0-21.235-9.352-21.235-20.889
	l0,0c0-11.54,9.505-20.892,21.235-20.892h7.865C271.66,174.859,281.168,184.211,281.168,195.751L281.168,195.751z"/>
<path style="fill:#EDD7BE;" d="M193.778,458.76c0,29.404-24.231,53.24-54.124,53.24l0,0c-29.89,0-54.123-23.835-54.123-53.24
	v-24.047c0-29.404,24.231-53.242,54.123-53.242l0,0c29.891,0,54.124,23.837,54.124,53.242V458.76z"/>
<path style="opacity:0.1;enable-background:new    ;" d="M103.109,333.07v-21.664c0-13.692,8.817-25.357,21.17-29.802
	c-3.454-1.242-7.186-1.921-11.079-1.921c-17.81,0-32.248,14.2-32.248,31.721v21.664c0,17.522,14.437,31.722,32.248,31.722
	c3.893,0,7.625-0.679,11.079-1.923C111.926,358.425,103.109,346.761,103.109,333.07z"/>
<path style="opacity:0.1;enable-background:new    ;" d="M107.69,458.76v-24.047c0-25.668,18.468-47.09,43.042-52.122
	c-3.577-0.731-7.281-1.12-11.078-1.12c-29.89,0-54.123,23.837-54.123,53.242v24.047c0,29.404,24.231,53.24,54.123,53.24
	c3.798,0,7.502-0.389,11.078-1.12C126.157,505.851,107.69,484.428,107.69,458.76z"/>
<g>
	<path style="fill:#8C6239;" d="M115.273,431.911c-4.465,0-8.083-3.618-8.083-8.083v-1.135c0-4.465,3.618-8.084,8.083-8.084
		s8.084,3.62,8.084,8.084v1.135C123.358,428.292,119.739,431.911,115.273,431.911z"/>
	<path style="fill:#8C6239;" d="M164.037,431.911c-4.465,0-8.083-3.618-8.083-8.083v-1.135c0-4.465,3.618-8.084,8.083-8.084
		s8.084,3.62,8.084,8.084v1.135C172.122,428.292,168.503,431.911,164.037,431.911z"/>
	<path style="fill:#8C6239;" d="M139.841,422.325c-4.465,0-8.083-3.62-8.083-8.084v-1.132c0-4.465,3.618-8.083,8.083-8.083
		s8.084,3.618,8.084,8.083v1.132C147.926,418.705,144.306,422.325,139.841,422.325z"/>
	<ellipse style="fill:#8C6239;" cx="139.65" cy="462.211" rx="20.884" ry="20.546"/>
</g>
<path style="fill:#EDD7BE;" d="M431.885,458.76c0,29.404-24.23,53.24-54.124,53.24l0,0c-29.891,0-54.123-23.835-54.123-53.24
	v-24.047c0-29.404,24.231-53.242,54.123-53.242l0,0c29.892,0,54.124,23.837,54.124,53.242V458.76z"/>
<g>
	<path style="fill:#8C6239;" d="M353.381,431.911c-4.465,0-8.084-3.618-8.084-8.083v-1.135c0-4.465,3.62-8.084,8.084-8.084
		c4.465,0,8.083,3.62,8.083,8.084v1.135C361.465,428.292,357.847,431.911,353.381,431.911z"/>
	<path style="fill:#8C6239;" d="M402.144,431.911c-4.465,0-8.083-3.618-8.083-8.083v-1.135c0-4.465,3.618-8.084,8.083-8.084
		s8.084,3.62,8.084,8.084v1.135C410.228,428.292,406.61,431.911,402.144,431.911z"/>
	<path style="fill:#8C6239;" d="M377.951,422.325c-4.465,0-8.083-3.62-8.083-8.084v-1.132c0-4.465,3.618-8.083,8.083-8.083
		c4.465,0,8.084,3.618,8.084,8.083v1.132C386.035,418.705,382.415,422.325,377.951,422.325z"/>
	<ellipse style="fill:#8C6239;" cx="377.761" cy="462.211" rx="20.884" ry="20.546"/>
</g>
<g>
	<ellipse style="fill:#603813;" cx="181.038" cy="159.577" rx="15.252" ry="15.225"/>
	<ellipse style="fill:#603813;" cx="334.116" cy="159.577" rx="15.251" ry="15.225"/>
	<path style="fill:#603813;" d="M206.358,346.411h-17.634v-30.643c0-3.055-2.394-5.448-5.45-5.448c-3.054,0-5.448,2.393-5.448,5.448
		v35.198c0,3.056,2.394,5.449,5.448,5.449h23.084c2.806,0,5.003-2.196,5.003-5.002C211.361,348.609,209.164,346.411,206.358,346.411
		z"/>
	<path style="fill:#603813;" d="M233.904,309.937c-13.639,0-24.323,10.377-24.323,23.623v0.128
		c0,13.392,10.403,23.493,24.196,23.493c13.641,0,24.324-10.376,24.324-23.622v-0.129
		C258.102,320.038,247.7,309.937,233.904,309.937z M220.926,333.431c0-7.618,5.525-13.362,12.851-13.362
		c7.4,0,12.981,5.8,12.981,13.491v0.127c0,7.617-5.525,13.361-12.853,13.361c-7.399,0-12.979-5.798-12.979-13.489V333.431z"/>
	<path style="fill:#603813;" d="M295.439,310.32c-2.648,0-4.53,1.739-5.221,3.468l-10.783,27.904l-10.657-27.585
		c-0.932-2.407-2.927-3.787-5.475-3.787c-3.056,0-5.449,2.366-5.449,5.384c0,0.954,0.295,1.797,0.615,2.566l14.476,34.628
		c1.162,2.761,3.252,4.219,6.044,4.219h0.638c2.792,0,4.882-1.459,6.044-4.221l14.598-34.932c0.167-0.375,0.557-1.362,0.557-2.388
		C300.825,312.629,298.46,310.32,295.439,310.32z"/>
	<path style="fill:#603813;" d="M334.593,346.603h-19.674v-8.295h16.485c2.723,0,4.939-2.187,4.939-4.875
		c0-2.724-2.215-4.938-4.939-4.938h-16.485v-7.978h19.355c2.723,0,4.939-2.187,4.939-4.875c0-2.722-2.215-4.939-4.939-4.939h-24.741
		c-3.055,0-5.449,2.394-5.449,5.449v34.816c0,3.056,2.394,5.449,5.449,5.449h25.06c2.723,0,4.939-2.186,4.939-4.874
		C339.531,348.819,337.316,346.603,334.593,346.603z"/>
</g>
<g>
	<circle style="fill:#FFAA99;" cx="145.763" cy="212.114" r="21.943"/>
	<circle style="fill:#FFAA99;" cx="366.236" cy="212.114" r="21.943"/>
</g>
</svg>